<svg id="layout" xmlns="http://www.w3.org/2000/svg" viewBox="0 0 280 252"><defs><style>.cls-1{fill:#fff;}</style></defs><path id="arrow-2" class="cls-1" d="M231.3,223.87c-2.11-.25-4.34-.59-6.67-1-17.2-3.27-43.84-13.11-73.16-41.43-35.24-34.05-72.63-48.92-97.92-55.4,25.29-6.49,62.68-21.35,97.92-55.4,29.32-28.32,56-38.17,73.16-41.44,2.33-.44,4.56-.78,6.67-1L213,52l67-30L208,0l22.94,18C210,20.34,178.8,30.3,144.53,63.4A210.55,210.55,0,0,1,44.46,117.73a23,23,0,1,0,0,16.53,210.73,210.73,0,0,1,100.07,54.33C178.8,221.7,210,231.66,230.94,234L208,252l72-22-67-30Z"/></svg>