<?xml version="1.0" encoding="UTF-8"?>
<svg width="918px" height="505px" viewBox="0 0 918 505" version="1.1" xmlns="http://www.w3.org/2000/svg" xmlns:xlink="http://www.w3.org/1999/xlink">
    <title>How It Works Copy 2</title>
    <g id="How-It-Works-Copy-2" stroke="none" stroke-width="1" fill="none" fill-rule="evenodd">
        <text id="Subsequent-Request" font-family="HelveticaNeue-Bold, Helvetica Neue" font-size="27" font-weight="bold" fill="#2D3748">
            <tspan x="589.972" y="452">Subsequent Request</tspan>
        </text>
        <text id="Initial-Request" font-family="HelveticaNeue-Bold, Helvetica Neue" font-size="27" font-weight="bold" fill="#2D3748">
            <tspan x="224.8085" y="452">Initial Request</tspan>
        </text>
        <path id="Line-3" d="M223.555939,308.993812 L226.555931,309.000523 L226.552575,310.50052 L226.541,315.503 L234.541363,315.521299 L224.998881,334.499999 L215.541411,315.478794 L223.541,315.496 L223.552583,310.493808 L223.555939,308.993812 Z M223.60963,284.993872 L226.609622,285.000584 L226.606266,286.50058 L226.579421,298.50055 L226.576065,300.000546 L223.576073,299.993835 L223.579428,298.493838 L223.606274,286.493868 L223.60963,284.993872 Z M223.663321,260.993932 L226.663313,261.000644 L226.659958,262.50064 L226.633112,274.50061 L226.629756,276.000606 L223.629764,275.993895 L223.63312,274.493898 L223.659965,262.493928 L223.663321,260.993932 Z M223.717012,236.993992 L226.717004,237.000704 L226.713649,238.5007 L226.686803,250.50067 L226.683447,252.000666 L223.683455,251.993955 L223.686811,250.493958 L223.713656,238.493989 L223.717012,236.993992 Z M223.770703,212.994052 L226.770696,213.000764 L226.76734,214.50076 L226.740494,226.50073 L226.737139,228.000726 L223.737146,227.994015 L223.740502,226.494019 L223.767347,214.494049 L223.770703,212.994052 Z M223.824394,188.994112 L226.824387,189.000824 L226.821031,190.50082 L226.794185,202.50079 L226.79083,204.000786 L223.790837,203.994075 L223.794193,202.494079 L223.821039,190.494109 L223.824394,188.994112 Z M223.878085,164.994172 L226.878078,165.000884 L226.874722,166.50088 L226.847877,178.50085 L226.844521,180.000846 L223.844528,179.994135 L223.847884,178.494139 L223.87473,166.494169 L223.878085,164.994172 Z M223.931776,140.994232 L226.931769,141.000944 L226.928413,142.50094 L226.901568,154.50091 L226.898212,156.000906 L223.89822,155.994195 L223.901575,154.494199 L223.928421,142.494229 L223.931776,140.994232 Z M225.521253,101.000024 C230.767945,101.011761 235.011714,105.274561 234.999976,110.521253 C234.989381,115.257192 231.515099,119.175969 226.980018,119.885422 L226.955259,130.50097 L226.951903,132.000966 L223.951911,131.994255 L223.955266,130.494259 L223.979003,119.878867 C219.44665,119.149547 215.989428,115.215035 216.000024,110.478747 C216.011761,105.232055 220.274561,100.988286 225.521253,101.000024 Z" fill="#AAB6BF" fill-rule="nonzero"></path>
        <line x1="225.467172" y1="365.5" x2="409.532828" y2="365.5" id="Line-4" stroke="#3182CE" stroke-width="14" stroke-linecap="round"></line>
        <line x1="409.5" y1="334.5" x2="409.623873" y2="286.808943" id="Path" stroke="#AAB6BF" stroke-width="3" stroke-linecap="square" stroke-dasharray="12"></line>
        <path id="Path" d="M408.361333,195.384855 L411.361323,195.392648 L411.357427,196.892643 L411.326258,208.892602 L411.322362,210.392597 L408.322372,210.384805 L408.326268,208.88481 L408.357437,196.88485 L408.361333,195.384855 Z M408.42367,171.384936 L411.42366,171.392729 L411.419764,172.892723 L411.388595,184.892683 L411.384699,186.392678 L408.38471,186.384886 L408.388606,184.884891 L408.419774,172.884931 L408.42367,171.384936 Z M410.001299,141.500002 L419.451916,160.524613 L411.451,160.503 L411.450933,160.892764 L411.447037,162.392759 L408.447047,162.384967 L408.450943,160.884972 L408.451,160.496 L400.45198,160.475262 L410.001299,141.500002 Z" fill="#AAB6BF" fill-rule="nonzero"></path>
        <line x1="629.5" y1="155.279687" x2="629.251509" y2="244.10047" id="Path" stroke="#AAB6BF" stroke-width="3" stroke-linecap="square" stroke-dasharray="12"></line>
        <path id="Path" d="M627.586992,302.903479 L630.58698,302.911872 L630.582784,304.411866 L630.551,315.504 L638.551719,315.52665 L628.998601,334.499998 L619.551794,315.473495 L627.551,315.495 L627.582795,304.403473 L627.586992,302.903479 Z M627.654136,278.903573 L630.654124,278.911966 L630.649927,280.41196 L630.616356,292.411913 L630.612159,293.911907 L627.612171,293.903514 L627.616367,292.40352 L627.649939,280.403567 L627.654136,278.903573 Z" fill="#AAB6BF" fill-rule="nonzero"></path>
        <line x1="814.5" y1="334.5" x2="814.362408" y2="281.527072" id="Path" stroke="#AAB6BF" stroke-width="3" stroke-linecap="square" stroke-dasharray="12"></line>
        <path id="Path" d="M815.639308,195.631547 L815.643204,197.131542 L815.674373,209.131501 L815.678269,210.631496 L812.678279,210.639288 L812.674383,209.139293 L812.643214,197.139334 L812.639318,195.639339 L815.639308,195.631547 Z M815.57697,171.631628 L815.612035,185.131582 L815.615931,186.631577 L812.615941,186.639369 L812.612045,185.139374 L812.57698,171.63942 L815.57697,171.631628 Z M813.998701,141.500002 L823.54802,160.475262 L815.548,160.496 L815.549698,161.131663 L815.553594,162.631658 L812.553604,162.63945 L812.549708,161.139455 L812.548,160.503 L804.548084,160.524613 L813.998701,141.500002 Z" fill="#AAB6BF" fill-rule="nonzero"></path>
        <line x1="409" y1="110" x2="874" y2="110" id="Line-5" stroke="#3182CE" stroke-width="14" stroke-linecap="round"></line>
        <text id="Click-“+”-Button" font-family="HelveticaNeue-Bold, Helvetica Neue" font-size="20" font-weight="bold" letter-spacing="1.125" fill="#2D3748">
            <tspan x="544.08" y="53">Click “+” Button</tspan>
        </text>
        <text id="Browser" font-family="HelveticaNeue-Bold, Helvetica Neue" font-size="20" font-weight="bold" letter-spacing="1.125" fill="#3182CE">
            <tspan x="89.0625" y="118">Browser</tspan>
        </text>
        <text id="Server" font-family="HelveticaNeue-Bold, Helvetica Neue" font-size="20" font-weight="bold" letter-spacing="1.125" fill="#3182CE">
            <tspan x="86.675" y="374">Server</tspan>
        </text>
        <line x1="634.46875" y1="365.5" x2="813.53125" y2="365.5" id="Line-2" stroke="#3182CE" stroke-width="14" stroke-linecap="round"></line>
        <g id="server" transform="translate(42.000000, 353.000000)" fill="#3182CE">
            <path d="M0,3.73333333 C0,1.67146933 1.66102265,0 3.71,0 L25.97,0 C28.019033,0 29.68,1.67146933 29.68,3.73333333 L29.68,7.46666667 C29.68,9.52853067 28.019033,11.2 25.97,11.2 L3.71,11.2 C1.66102265,11.2 0,9.52853067 0,7.46666667 L0,3.73333333 Z M25.97,5.6 C25.97,6.63092267 25.1395165,7.46666667 24.115,7.46666667 C23.0904835,7.46666667 22.26,6.63092267 22.26,5.6 C22.26,4.56907733 23.0904835,3.73333333 24.115,3.73333333 C25.1395165,3.73333333 25.97,4.56907733 25.97,5.6 Z" id="Shape"></path>
            <path d="M0,18.2933333 C0,16.2314133 1.66102265,14.56 3.71,14.56 L25.97,14.56 C28.019033,14.56 29.68,16.2314133 29.68,18.2933333 L29.68,22.0266667 C29.68,24.0885867 28.019033,25.76 25.97,25.76 L3.71,25.76 C1.66102265,25.76 0,24.0885867 0,22.0266667 L0,18.2933333 Z M25.97,20.16 C25.97,21.19096 25.1395165,22.0266667 24.115,22.0266667 C23.0904835,22.0266667 22.26,21.19096 22.26,20.16 C22.26,19.12904 23.0904835,18.2933333 24.115,18.2933333 C25.1395165,18.2933333 25.97,19.12904 25.97,20.16 Z" id="Shape"></path>
        </g>
        <g id="desktop-computer" transform="translate(42.000000, 95.000000)" fill="#3182CE">
            <path d="M0,4.256 C0,1.90547504 1.8983116,0 4.24,0 L25.44,0 C27.781752,0 29.68,1.90547504 29.68,4.256 L29.68,21.28 C29.68,23.6305888 27.781752,25.536 25.44,25.536 L20.735296,25.536 L20.99436,26.5759536 L22.699052,28.2872912 C23.305372,28.8958992 23.486844,29.811152 23.158668,30.6063856 C22.830492,31.4014064 22.05754,31.92 21.2,31.92 L8.4800636,31.92 C7.6226084,31.92 6.8495716,31.4014064 6.521438,30.6063856 C6.1933044,29.811152 6.3746704,28.8958992 6.9809904,28.2872912 L8.6857672,26.5759536 L8.94481,25.536 L4.24,25.536 C1.8983116,25.536 0,23.6305888 0,21.28 L0,4.256 Z M12.235156,19.152 C12.2039284,19.1513616 12.1728068,19.1513616 12.14177,19.152 L4.24,19.152 L4.24,4.256 L25.44,4.256 L25.44,19.152 L17.538336,19.152 C17.507384,19.1513616 17.47622,19.1513616 17.445056,19.152 L12.235156,19.152 Z" id="Shape"></path>
        </g>
        <text id="&lt;h1&gt;1&lt;/h1&gt;" font-family="FiraCode-Bold, Fira Code" font-size="16" font-weight="bold" letter-spacing="0.9" fill="#AAB6BF">
            <tspan x="357.5" y="240">&lt;h1&gt;1&lt;/h1&gt;</tspan>
        </text>
        <text id="{-count:-1-}" font-family="FiraCode-Bold, Fira Code" font-size="16" font-weight="bold" letter-spacing="0.9" fill="#2D3748">
            <tspan x="345.5" y="268">{ count: 1 }</tspan>
        </text>
        <text id="&lt;h1&gt;2&lt;/h1&gt;" font-family="FiraCode-Bold, Fira Code" font-size="16" font-weight="bold" letter-spacing="0.9" fill="#AAB6BF">
            <tspan x="764.5" y="240">&lt;h1&gt;2&lt;/h1&gt;</tspan>
        </text>
        <text id="{-count:-2-}" font-family="FiraCode-Bold, Fira Code" font-size="16" font-weight="bold" letter-spacing="0.9" fill="#2D3748">
            <tspan x="752.5" y="268">{ count: 2 }</tspan>
        </text>
        <text id="{-count:-1-}" font-family="FiraCode-Bold, Fira Code" font-size="16" font-weight="bold" letter-spacing="0.9" fill="#2D3748">
            <tspan x="563.5" y="268">{ count: 1 }</tspan>
        </text>
        <path id="Line-6" d="M629.5,88 L639,69 L620,69 L629.5,88 Z" fill="#2D3748" fill-rule="nonzero"></path>
        <text id="Visit-Page" font-family="HelveticaNeue-Bold, Helvetica Neue" font-size="20" font-weight="bold" letter-spacing="1.125" fill="#2D3748">
            <tspan x="172.165" y="53">Visit Page</tspan>
        </text>
        <path id="Line-6" d="M224.5,88 L234,69 L215,69 L224.5,88 Z" fill="#2D3748" fill-rule="nonzero"></path>
    </g>
</svg>