<svg id="Layer_1" data-name="Layer 1" xmlns="http://www.w3.org/2000/svg" viewBox="0 0 286.5 81"><defs><style>.cls-1{fill:#fff;}.cls-2{fill:#89d0f4;}</style></defs><path class="cls-1" d="M112.05,69.11c0,.62-.06,1.25-.14,1.92l2.49-4.52L114.12,65l2.5-.38.91,6.25L118.68,67a4.81,4.81,0,0,0,.15-1,3.69,3.69,0,0,0-.12-1l2.62-.5a6.49,6.49,0,0,1,.14,1.48,6.38,6.38,0,0,1-.62,2.35L118.74,74h-3.11L115,69.78,112.53,74h-3a61.28,61.28,0,0,0-.3-9l2.6-.4A26,26,0,0,1,112.05,69.11Z"/><path class="cls-1" d="M128.28,67c-1.21.65-1.65.9-2.75,1.57L124.36,74h-2.69l1.9-9.08,2.39-.41-.1,1.27a20.1,20.1,0,0,1,2.47-1.27Z"/><path class="cls-1" d="M129.88,64.91l2.79-.39-2,9.49H128Zm.87-4.12,2.79-.38-.62,2.87-2.77.38Z"/><path class="cls-1" d="M137.63,66.86l-1,4.64a1.81,1.81,0,0,0-.05.25c0,.14.07.19.26.19a4.38,4.38,0,0,0,1.47-.38l.47,1.88a6.64,6.64,0,0,1-3,.76c-1.36,0-2.06-.65-2-1.76a2.73,2.73,0,0,1,.05-.4l1.1-5.18h-1.38L134,64.7h1.38l.46-2.24,2.78-.38-.55,2.62h2.22l-.61,2.16Z"/><path class="cls-1" d="M140.84,68c.46-2.14,1.46-3.52,4.41-3.52,1.76,0,3.07.77,3,2.34-.06,1.81-1,2.66-3.34,3.34-1.14.35-1.16.35-2,.56l-.14.65c-.07.34,0,.65.45.65A10.9,10.9,0,0,0,147,71l.45,1.91a9.42,9.42,0,0,1-4.59,1.28c-1.93,0-2.73-.84-2.67-2.43a6.07,6.07,0,0,1,.15-1.13Zm4.91-.9c0-.32-.27-.53-.77-.53-1,0-1.28.55-1.44,1.32l-.13.65c.46-.12.67-.15,1.23-.33C145.37,68,145.73,67.68,145.75,67.12Z"/><path class="cls-1" d="M155.22,60.89l2.79-.38L155.16,74h-2.69Z"/><path class="cls-1" d="M158.35,68c.46-2.14,1.47-3.52,4.41-3.52,1.76,0,3.07.77,3,2.34-.07,1.81-1,2.66-3.35,3.34-1.14.35-1.16.35-2,.56l-.14.65c-.07.34,0,.65.46.65a10.91,10.91,0,0,0,3.68-1l.45,1.91a9.42,9.42,0,0,1-4.59,1.28c-1.93,0-2.73-.84-2.67-2.43a6.07,6.07,0,0,1,.15-1.13Zm4.91-.9c0-.32-.27-.53-.76-.53-1,0-1.29.55-1.45,1.32l-.13.65c.46-.12.67-.15,1.23-.33C162.89,68,163.24,67.68,163.26,67.12Z"/><path class="cls-1" d="M166,73.59l.58-2a7.18,7.18,0,0,0,2.51.48c.9,0,1-.27,1.06-.71s-.17-.65-1.2-1.21c-1.92-1-2-1.72-1.67-3.11.43-2,1-2.55,3.62-2.55a10.22,10.22,0,0,1,2.76.44l-.51,2a10.18,10.18,0,0,0-2.34-.34c-.8,0-.92.09-1,.59s0,.54.88,1c2.1,1.15,2.41,1.55,2.09,3-.45,2.11-1.09,3-3.89,3A7.93,7.93,0,0,1,166,73.59Z"/><path class="cls-1" d="M173.72,73.59l.59-2a7.14,7.14,0,0,0,2.51.48c.89,0,1-.27,1.05-.71s-.17-.65-1.2-1.21c-1.91-1-2-1.72-1.67-3.11.44-2,1.05-2.55,3.63-2.55a10.22,10.22,0,0,1,2.76.44l-.52,2a10.09,10.09,0,0,0-2.33-.34c-.81,0-.93.09-1,.59s0,.54.88,1c2.1,1.15,2.42,1.55,2.1,3-.46,2.11-1.1,3-3.89,3A8,8,0,0,1,173.72,73.59Z"/><path class="cls-1" d="M181.11,76.09,182.66,74h-1l.67-3.18H185l-.73,3.41-2.21,2.64Z"/><path class="cls-1" d="M195.85,74l0-.8a4.67,4.67,0,0,1-3,1c-2,0-2.48-1.22-2-3.31l.52-2.5c.46-2.22,1.09-3.89,5-3.89a6.79,6.79,0,0,1,1.13.1l.78-3.71,2.76-.38L198.12,74Zm-2.47-2.79c-.11.49,0,.72.49.72a3.35,3.35,0,0,0,2.2-1l.87-4.15a5.67,5.67,0,0,0-1.05-.08c-1.4,0-1.71.75-1.91,1.65Z"/><path class="cls-1" d="M200.63,71.08a4.81,4.81,0,0,1,.08-.65l.46-2.16c.5-2.39,1.72-3.77,5-3.77,2.5,0,3.58,1.44,3.52,3.1a3.22,3.22,0,0,1-.08.67l-.45,2.16c-.49,2.24-1.61,3.77-5,3.77C201.77,74.2,200.57,72.78,200.63,71.08ZM207,67.81c0-.69-.38-1-1.26-1a1.67,1.67,0,0,0-1.81,1.44l-.48,2.31a3,3,0,0,0-.06.38c0,.67.39,1,1.27,1a1.66,1.66,0,0,0,1.81-1.43l.48-2.31A3,3,0,0,0,207,67.81Z"/><path class="cls-1" d="M226.12,67.68a2.21,2.21,0,0,0,0-.29c0-.19-.09-.27-.35-.27a8,8,0,0,0-2.46.9l-1.26,6h-2.68l1.33-6.33a2.21,2.21,0,0,0,.05-.29c0-.19-.09-.27-.36-.27A8.19,8.19,0,0,0,218,68l-1.26,6h-2.69l1.9-9.08,2.39-.41-.06,1A9,9,0,0,1,222,64.5a1.43,1.43,0,0,1,1.57,1.09,7.63,7.63,0,0,1,3.8-1.09c1.24,0,1.68.71,1.64,1.9a6.3,6.3,0,0,1-.14,1.07L227.49,74h-2.7Z"/><path class="cls-1" d="M229.9,71.08a4.81,4.81,0,0,1,.08-.65l.46-2.16c.5-2.39,1.72-3.77,5-3.77,2.5,0,3.58,1.44,3.52,3.1a4.07,4.07,0,0,1-.08.67l-.46,2.16c-.48,2.24-1.6,3.77-5,3.77C231,74.2,229.84,72.78,229.9,71.08Zm6.33-3.27c0-.69-.38-1-1.26-1a1.67,1.67,0,0,0-1.81,1.44l-.49,2.31c0,.13,0,.27,0,.38,0,.67.39,1,1.27,1a1.66,1.66,0,0,0,1.81-1.43l.48-2.31C236.2,68.06,236.22,67.93,236.23,67.81Z"/><path class="cls-1" d="M246.09,67c-1.21.65-1.66.9-2.75,1.57L242.17,74h-2.7l1.91-9.08,2.38-.41-.1,1.27a21.64,21.64,0,0,1,2.47-1.27Z"/><path class="cls-1" d="M246.7,68c.46-2.14,1.46-3.52,4.4-3.52,1.76,0,3.07.77,3,2.34-.06,1.81-1,2.66-3.35,3.34-1.14.35-1.16.35-2,.56l-.13.65c-.07.34,0,.65.45.65a10.9,10.9,0,0,0,3.69-1l.45,1.91a9.46,9.46,0,0,1-4.6,1.28c-1.93,0-2.72-.84-2.67-2.43a7.13,7.13,0,0,1,.16-1.13Zm4.91-.9c0-.32-.27-.53-.77-.53-1,0-1.28.55-1.44,1.32l-.14.65c.46-.12.68-.15,1.24-.33C251.23,68,251.59,67.68,251.61,67.12Z"/><path class="cls-1" d="M255.22,70.83h2.7L257.25,74h-2.69Z"/><path class="cls-2" d="M8.11,19.57c-4.56,6.55-4,15.07-.51,22,.08.17.17.33.25.5l.17.32.1.17c.06.12.12.22.18.33l.33.57a2.7,2.7,0,0,0,.2.31c.11.2.25.4.38.6l.16.26c.18.27.36.54.56.8v0a1.47,1.47,0,0,0,.1.13l.51.68.19.24.47.58.18.21q.31.39.66.75v0s0,0,0,0c.21.24.43.47.66.71L13,49l.52.52.22.21c.24.22.48.45.73.66h0l.13.11.66.56.27.22.56.43.29.22.62.45.23.15.06,0,.6.4.26.17.94.58.26.15.71.39.39.2.5.27.12,0,.21.1.8.38.17.07.94.39.22.09.88.32.11,0c.33.12.66.22,1,.32a1.69,1.69,0,0,0,.24.08,8.89,8.89,0,0,0,1,.28c22,4,28.44-13.24,28.44-13.24-5.38,7-14.93,8.85-24,6.79-.33-.07-.66-.18-1-.28l-.25-.07-1-.32-.14-.05-.85-.32-.24-.09q-.48-.18-.93-.39l-.19-.07-.77-.37-.23-.11c-.2-.09-.4-.2-.6-.3l-.4-.21c-.25-.13-.49-.27-.73-.41l-.24-.14c-.32-.18-.63-.38-.94-.57l-.26-.17-.67-.45L21.46,46l-.63-.46-.28-.21L20,44.85l-.25-.2-.72-.6a.27.27,0,0,0-.08-.07l-.74-.68L18,43.1l-.53-.53-.21-.21c-.23-.23-.45-.46-.66-.7l0,0c-.22-.25-.44-.51-.67-.76l-.17-.21-.49-.6L15,39.84c-.19-.24-.37-.49-.55-.74-5-6.84-6.83-16.29-2.82-24"/><path class="cls-2" d="M22.26,14.05c-3.31,4.74-3.13,11.09-.55,16.11a20,20,0,0,0,1.45,2.43,11.22,11.22,0,0,0,1.7,2.12c.23.26.48.51.74.77l.19.19.76.7s0,0,0,0h0c.29.25.58.49.89.73l.2.16c.3.23.61.45.92.67l0,0a4.38,4.38,0,0,0,.42.28l.19.13.69.42.1,0c.19.12.4.24.6.34l.22.12.42.21.06,0c.3.15.59.28.88.41l.2.08.72.3.31.11.66.23.31.1a6.2,6.2,0,0,0,1,.27c17,2.83,20.94-10.27,20.94-10.27-3.54,5.1-10.4,7.53-17.72,5.63l-1-.28-.29-.09-.67-.23-.31-.12-.72-.29-.19-.08-.89-.41-.45-.23-.25-.13c-.2-.1-.38-.21-.57-.32l-.13-.08a7.74,7.74,0,0,1-.68-.42l-.21-.13-.45-.3c-.31-.21-.61-.44-.91-.67-.08,0-.14-.11-.21-.16a20.42,20.42,0,0,1-7-9.9,15.36,15.36,0,0,1,1.2-12.33"/><path class="cls-2" d="M34.15,9.93a9.9,9.9,0,0,0-.79,9.57,13.46,13.46,0,0,0,7.73,7.22c.14.06.28.1.42.15l.19.06c.2.06.4.13.6.17,9.4,1.82,11.94-4.82,12.63-5.79-2.24,3.21-6,4-10.59,2.86a8.38,8.38,0,0,1-1.11-.34,13.81,13.81,0,0,1-1.33-.55,14.51,14.51,0,0,1-2.32-1.41c-4.12-3.13-6.67-9.09-4-13.94"/><path class="cls-1" d="M251.83,23.32l.37,1.56a.62.62,0,0,1-.63.81"/><path class="cls-1" d="M222.2,20.65c-.1.43-.21,1-.28,1.34L218.67,37.2l3.42-16Z"/><polygon class="cls-1" points="124.8 30.83 123.01 37.19 124.8 30.84 124.8 30.83"/><path class="cls-1" d="M252.2,24.88l-.93-4c-.74-2.87-2.84-4.22-7.54-4.22h-19.8a.93.93,0,0,0-1,.65L215.42,53a2.49,2.49,0,0,0-.08,1c.06.23.94.18,1.39.18h6.86a7.17,7.17,0,0,0,1.53-.06c.25-.11.37-.78.46-1.23L228,40.36l3-13.85a1.08,1.08,0,0,1,1-.81h19.61a.63.63,0,0,0,.63-.81"/><path class="cls-1" d="M280.09,10.44H271.4a2,2,0,0,0-1.3.87L254.84,33.76c-.26.38-.55.37-.66-.08l-1.12-4.92a1.09,1.09,0,0,0-1-.81h-9.81a.61.61,0,0,0-.6.82L246,44.19a3.75,3.75,0,0,1,0,1.6L244,53.6c-.11.44.17.57.63.57h9.69c.46,0,.93-.13,1-.57l2.05-7.92a4.77,4.77,0,0,1,.7-1.41l24.91-33c.28-.37.24-.8-.22-.8Z"/><path class="cls-1" d="M178,16.73h-8.85c-.46,0-.92.16-1,.6L165.18,31l-2.92,13.11c-.09.44-.54.41-1,.41h-5.82c-5.75,0-5.09-3.64-3.91-9.09,0-.05,3.69-18.13,3.69-18.13.09-.44-.21-.6-.66-.6h-8.44c-.45,0-.91.16-1,.6l-3.4,18.12c-1.69,9.79-1.74,18.41,9.62,18.7h17.93c.46,0,.91-.16,1-.6l3.85-18.16L178,17.15S178.11,16.73,178,16.73Z"/><path class="cls-1" d="M89.78,16.7h-9.5c-.45,0-.91.11-1,.55l-1.71,7.41a.62.62,0,0,0,.65.79H87.3a1.13,1.13,0,0,0,1-.85L90,17.13S90.09,16.7,89.78,16.7Z"/><path class="cls-1" d="M77.59,28a1.09,1.09,0,0,0-1,.81L75.3,34.41,72.45,47.47s-1.52,6.93-1.67,7.37c0,0-1.28,5-4.33,4.81a26.24,26.24,0,0,1-3.05-.42h0c-.85-.26-.91.63-1,1.07l-1.89,8.13a.67.67,0,0,0,.64.86,62.66,62.66,0,0,0,7,.57h.47c7.13,0,10.9-4.19,13.3-15.57L84.7,41.11l2.64-12.25a.66.66,0,0,0-.63-.86"/><path class="cls-1" d="M200.36,16.64c-16,0-19.78,9.87-21.9,19.65-2.12,10-1.94,17.86,14.58,17.86h15.12a1.12,1.12,0,0,0,1-.86L210.77,47c.09-.45-.21-.58-.66-.58H195.25c-5.38,0-7.31-1.66-7.12-5.38,0-.42.48-1.5.93-1.5H212c1,0,1-.6,1-.6,2.33-10.51,2.48-22.26-12.63-22.26m4.21,15.67c0,.5-1.56.4-1.56.4l-12.45-.09c-.43,0-.55-.6-.58-1a4.72,4.72,0,0,1,.07-.64c1-3.34,3.83-5.25,8.38-5.25,5.12,0,6.21,2.54,6.21,5.36"/><path class="cls-1" d="M131.36,43.86s4.47-10.87,5.48-17.15c1.39-8.4-2.81-20.58-19.06-20.58S94.61,17.76,91.93,30.41s.83,23.83,16.89,23.74l24.52,0a1.15,1.15,0,0,0,1-.8l2.07-7.87a.62.62,0,0,0-.63-.81h-3.95a.51.51,0,0,1-.56-.59.61.61,0,0,1,.05-.18m-8.44-6.67-1.84,6.29a1.18,1.18,0,0,1-1.1.74h-9.49c-7.21,0-9-5.57-7.21-13.88,1.76-8.49,5.24-13.74,12.33-14.27,9.68-.73,11.67,6.11,9.32,14Z"/></svg>